# xmcd
#
# Track frame offsets: 
#        150
#        11083
#        21821
#        33746
#        42855
#        53390
#        65996
#        77087
#        87381
#        97896
#        111434
#
# Disc length: 1652 seconds
#
# Revision: 1
# Processed by: cddbd v1.5.2PL0 Copyright (c) Steve Scherf et al.
# Submitted via: ExactAudioCopy v0.99pb4
#
DISCID=8a06720b
DTITLE=Tammy Wynette - The Ways To Love A Man
DYEAR=1970
DGENRE=Country
TTITLE0=The Ways To Love A Man
TTITLE1=The Twelfth Of Never
TTITLE2=I'll Share My World With You
TTITLE3=Enough Of A Woman
TTITLE4=Singing My Song
TTITLE5=He'll Never Take The Place Of You
TTITLE6=I Know
TTITLE7=Yearning (To Kiss You)
TTITLE8=These Two
TTITLE9=Where Could You Go (But To Her)
TTITLE10=Still Around
EXTD=
EXTT0=
EXTT1=
EXTT2=
EXTT3=
EXTT4=
EXTT5=
EXTT6=
EXTT7=
EXTT8=
EXTT9=
EXTT10=
PLAYORDER=
